<?xml version="1.0" encoding="utf-8"?>
<!-- Generator: Adobe Illustrator 26.5.0, SVG Export Plug-In . SVG Version: 6.00 Build 0)  -->
<svg version="1.1" id="Layer_1" xmlns="http://www.w3.org/2000/svg" xmlns:xlink="http://www.w3.org/1999/xlink" x="0px" y="0px"
	 width="95.9369px" height="17.2393px" viewBox="0 0 95.9369 17.2393" style="enable-background:new 0 0 95.9369 17.2393;"
	 xml:space="preserve">
<style type="text/css">
	.st0{fill:#0B0906;}
</style>
<path class="st0" d="M10.1728,7.3754H6.284l-2.023-2.462L3.0863,5.8276v1.5478H0.0282V0.7182h3.0582v2.3126l2.8628-2.3126h3.8512
	l-3.2268,2.452L10.1728,7.3754z"/>
<path class="st0" d="M18.6478,1.3289c0.8636,0.5808,1.2966,1.4873,1.2966,2.718s-0.4322,2.1371-1.2966,2.718
	c-0.8636,0.5816-2.2,0.8712-4.0099,0.8712s-3.1448-0.2904-4.0091-0.8712C9.7644,6.1831,9.333,5.2774,9.333,4.0468
	s0.4314-2.1371,1.2958-2.7179c0.8644-0.5809,2.2007-0.872,4.0092-0.872S17.7842,0.748,18.6478,1.3289z M16.0984,5.1334
	c0.3326-0.2521,0.4989-0.6138,0.4989-1.0865S16.431,3.2124,16.0984,2.961c-0.3326-0.2521-0.8192-0.3778-1.4598-0.3778
	c-0.6406,0-1.1264,0.1256-1.459,0.3778c-0.3326,0.2521-0.4989,0.6138-0.4989,1.0858s0.1663,0.8345,0.4989,1.0865
	c0.3326,0.2514,0.8192,0.3778,1.459,0.3778C15.2793,5.5111,15.7658,5.3847,16.0984,5.1334z"/>
<path class="st0" d="M29.9679,0.7182v3.6083c0,0.8206-0.1793,1.4735-0.5364,1.9586c-0.357,0.4843-0.8843,0.8314-1.5801,1.0398
	C27.155,7.5325,26.27,7.6368,25.1941,7.6368c-1.0758,0-1.9709-0.1042-2.6666-0.3119c-0.6958-0.2084-1.2214-0.5547-1.5755-1.0398
	C20.5972,5.8,20.4202,5.1471,20.4202,4.3265V0.7182h3.0582v3.4689c0,0.4169,0.1479,0.7256,0.4429,0.928
	c0.295,0.2023,0.7196,0.3027,1.2728,0.3027c0.5533,0,0.9693-0.1012,1.2681-0.3027c0.2989-0.2023,0.4475-0.5111,0.4475-0.928V0.7182
	H29.9679z"/>
<path class="st0" d="M40.393,7.3754h-3.534l-1.082-1.6972h-2.154v1.6972h-3.0582V0.7182h6.8068c1.026,0,1.7578,0.1915,2.1961,0.5739
	c0.4384,0.3824,0.6574,0.9648,0.6574,1.7486c0,0.5716-0.1242,1.0069-0.3731,1.3049c-0.249,0.2989-0.6,0.5035-1.0536,0.6153v0.0934
	L40.393,7.3754z M36.8122,3.3664c0-0.3663-0.2176-0.5502-0.6529-0.5502h-2.5356v1.1004h2.5356
	C36.5938,3.9165,36.8122,3.7333,36.8122,3.3664z"/>
<path class="st0" d="M49.9032,3.0216h-3.1425v4.3547h-3.0582V3.0216H40.57V0.7182h9.3332V3.0216z"/>
<path class="st0" d="M59.9544,0.7182v6.6574h-3.59L53.297,3.9066h-0.0744v3.4689h-2.8812V0.7182h3.6268l3.0298,3.4221h0.075V0.7182
	H59.9544z"/>
<path class="st0" d="M63.6095,3.1893h5.0911v1.5295h-5.0911v0.8675h5.4267v1.79h-8.4856V0.7182h8.4106v1.6881h-5.3517V3.1893
	L63.6095,3.1893z"/>
<path class="st0" d="M75.833,5.502v1.8743h-3.0674V5.502l-3.6735-4.7838h3.6826l1.5295,2.2567l1.5111-2.2567h3.6834L75.833,5.502
	L75.833,5.502z"/>
<path class="st0" d="M10.1728,16.5217H6.284l-2.023-2.4612l-1.1747,0.9134v1.5478H0.0282V9.8643h3.0582v2.3126l2.8628-2.3126h3.8512
	l-3.2268,2.4521L10.1728,16.5217z"/>
<path class="st0" d="M17.2585,15.7478h-3.6551l-0.3731,0.7739H9.9009l3.4597-6.6574h4.1677l3.4314,6.6574h-3.3194L17.2585,15.7478
	L17.2585,15.7478z M16.4011,14.0045l-0.941-1.9026h-0.056l-0.9326,1.9026H16.4011z"/>
<path class="st0" d="M30.9648,16.5217h-3.5333l-1.082-1.6966h-2.154v1.6966h-3.0582V9.8643h6.8068
	c1.0253,0,1.7571,0.1915,2.1961,0.5739c0.4384,0.3824,0.6567,0.9655,0.6567,1.7486c0,0.5716-0.1242,1.0069-0.3731,1.3049
	c-0.249,0.2989-0.6,0.5035-1.0536,0.6153v0.0935L30.9648,16.5217z M27.3848,12.5125c0-0.3671-0.2176-0.5502-0.6521-0.5502h-2.5364
	v1.1004h2.5364C27.1671,13.0627,27.3848,12.8796,27.3848,12.5125L27.3848,12.5125z"/>
<path class="st0" d="M39.2781,10.1953c0.5563,0.2207,0.9739,0.5754,1.2536,1.0628c0.2804,0.4882,0.42,1.1326,0.42,1.9348
	c0,0.8022-0.1403,1.4468-0.42,1.9348c-0.2797,0.4882-0.6973,0.8421-1.2536,1.0628c-0.557,0.2207-1.2674,0.331-2.131,0.331h-5.9017
	V9.8643h5.9019C38.0106,9.8643,38.721,9.9746,39.2781,10.1953z M34.3034,11.9348v2.5172h1.8736
	c0.4537,0,0.8045-0.1027,1.0536-0.3072c0.249-0.2054,0.3731-0.5218,0.3731-0.951c0-0.4291-0.1242-0.7464-0.3731-0.951
	c-0.249-0.2054-0.6-0.3072-1.0536-0.3072h-1.8736C34.3034,11.9356,34.3034,11.9348,34.3034,11.9348z"/>
<path class="st0" d="M47.73,15.7478h-3.6551l-0.3731,0.7739h-3.3287l3.4589-6.6574h4.1685l3.4314,6.6574h-3.3188L47.73,15.7478z
	 M46.8726,14.0045l-0.9425-1.9026h-0.056l-0.9318,1.9026H46.8726L46.8726,14.0045z"/>
<path class="st0" d="M56.0288,11.2536c-0.4727,0-0.8069,0.0407-1.003,0.1211c-0.1962,0.0804-0.2935,0.1992-0.2935,0.3541
	c0,0.125,0.0613,0.2161,0.1862,0.2758c0.1242,0.059,0.3487,0.1012,0.672,0.1256l2.8719,0.2146
	c0.9134,0.0682,1.5954,0.2613,2.0467,0.5778c0.4506,0.3173,0.6758,0.8115,0.6758,1.4827s-0.177,1.1402-0.531,1.4819
	c-0.3548,0.3425-0.8896,0.577-1.6046,0.7043c-0.715,0.1272-1.6873,0.1909-2.9188,0.1909s-2.1441-0.0682-2.8529-0.2054
	c-0.7088-0.1372-1.2429-0.3824-1.6038-0.7363c-0.3609-0.3541-0.5533-0.8574-0.5778-1.5103h3.5616
	c0.075,0.2919,0.2322,0.4965,0.4713,0.6153c0.2391,0.118,0.5954,0.177,1.0675,0.177c0.4965,0,0.8544-0.0429,1.072-0.1303
	c0.2176-0.0866,0.3264-0.2176,0.3264-0.3915c0-0.1487-0.0659-0.2552-0.1961-0.3173c-0.1303-0.0613-0.3541-0.1088-0.6712-0.1395
	l-2.7325-0.2429c-0.9072-0.0804-1.5908-0.2721-2.0513-0.5739c-0.4597-0.3012-0.6896-0.7939-0.6896-1.4774
	c0-0.5716,0.1824-1.0222,0.5448-1.3524c0.364-0.3295,0.895-0.5609,1.5946-0.6942c0.6996-0.1333,1.5962-0.2008,2.6897-0.2008
	s1.9693,0.0674,2.6628,0.2008c0.6927,0.1341,1.2222,0.3686,1.59,0.7043c0.3663,0.3357,0.5624,0.7954,0.587,1.3801h-3.5057
	C57.3184,11.465,56.8556,11.2536,56.0288,11.2536L56.0288,11.2536z"/>
<path class="st0" d="M71.2553,9.8643v6.6574h-3.0582v-2.3402h-3.4873v2.3402h-3.0582V9.8643h3.0582v2.2751h3.4873V9.8643
	C68.1972,9.8643,71.2553,9.8643,71.2553,9.8643z"/>
<path class="st0" d="M71.8515,16.5217V9.8643h3.0589v6.6574H71.8515z"/>
<path class="st0" d="M82.4444,15.7478h-3.6551l-0.3731,0.7739h-3.3295l3.4597-6.6574h4.1677l3.4314,6.6574H82.826L82.4444,15.7478
	L82.4444,15.7478z M81.5862,14.0045l-0.941-1.9026h-0.056l-0.9326,1.9026H81.5862z"/>
<path class="st0" d="M95.9369,9.8643v6.6574h-3.5892l-3.069-3.4689h-0.0744v3.4689h-2.8812V9.8643h3.6275l3.0306,3.4221h0.0744
	V9.8643C93.0557,9.8643,95.9369,9.8643,95.9369,9.8643z"/>
</svg>
